<?xml version="1.0" standalone="no"?>
<!DOCTYPE svg PUBLIC "-//W3C//DTD SVG 20010904//EN"
 "http://www.w3.org/TR/2001/REC-SVG-20010904/DTD/svg10.dtd">
<svg version="1.0" xmlns="http://www.w3.org/2000/svg"
 width="4912.000000pt" height="4912.000000pt" viewBox="0 0 4912.000000 4912.000000"
 preserveAspectRatio="xMidYMid meet">
<metadata>
Created by potrace 1.14, written by Peter Selinger 2001-2017
</metadata>
<g transform="translate(0.000000,4912.000000) scale(0.100000,-0.100000)"
fill="#000000" stroke="none">
<path d="M25 28240 c-4 -7 -9 -197 -5 -215 1 -5 2 -14 1 -20 -3 -14 -3 -209 0
-221 1 -5 1 -13 0 -19 -3 -14 -3 -209 0 -221 1 -5 1 -13 0 -19 -3 -14 -3 -209
0 -221 1 -5 1 -13 0 -19 -3 -14 -3 -209 0 -221 1 -5 1 -13 0 -19 -3 -14 -3
-209 0 -221 1 -5 1 -13 0 -19 -3 -14 -3 -209 0 -221 1 -5 1 -13 0 -19 -3 -14
-3 -209 0 -221 1 -5 1 -13 0 -19 -3 -14 -3 -209 0 -221 1 -5 1 -13 0 -19 -3
-14 -3 -209 0 -221 1 -5 1 -13 0 -19 -3 -14 -3 -209 0 -221 1 -5 1 -13 0 -19
-3 -14 -3 -209 0 -221 1 -5 1 -13 0 -19 -3 -14 -3 -209 0 -221 1 -5 1 -13 0
-19 -3 -14 -3 -209 0 -221 1 -5 1 -13 0 -19 -3 -14 -3 -209 0 -221 1 -5 1 -13
0 -19 -3 -14 -3 -209 0 -221 1 -5 1 -13 0 -19 -3 -14 -3 -209 0 -221 1 -5 1
-13 0 -19 -3 -14 -3 -209 0 -221 1 -5 1 -13 0 -19 -3 -14 -3 -209 0 -221 1 -5
1 -13 0 -19 -3 -14 -3 -209 0 -221 1 -5 1 -13 0 -19 -3 -14 -3 -209 0 -221 1
-5 1 -13 0 -19 -3 -14 -3 -209 0 -221 1 -5 1 -13 0 -19 -3 -14 -3 -209 0 -221
1 -5 1 -13 0 -19 -3 -14 -3 -209 0 -221 1 -5 1 -13 0 -19 -3 -14 -3 -209 0
-221 1 -5 1 -13 0 -19 -3 -14 -3 -209 0 -221 1 -5 1 -13 0 -19 -3 -14 -3 -209
0 -221 1 -5 1 -13 0 -19 -3 -14 -3 -209 0 -221 1 -5 1 -13 0 -19 -3 -14 -3
-209 0 -221 1 -5 1 -13 0 -19 -3 -14 -3 -209 0 -221 1 -5 1 -13 0 -19 -2 -11
-1 -211 1 -233 1 -11 262 -12 1442 -9 793 3 1466 7 1496 10 30 3 78 9 105 12
28 3 64 7 80 9 66 8 139 18 159 22 12 2 37 7 56 10 75 12 93 15 163 30 39 8
79 17 87 19 139 30 358 99 495 155 55 23 105 42 110 44 15 3 249 119 255 125
3 3 30 19 60 35 102 54 319 202 416 283 128 107 269 244 344 334 25 29 52 60
60 69 55 57 270 367 270 390 0 5 3 10 8 10 4 0 12 10 18 23 7 12 43 83 81 157
70 135 141 299 183 420 12 36 25 72 28 80 3 8 6 17 6 20 1 3 5 11 9 18 5 6 6
12 3 12 -3 0 0 17 8 38 27 71 29 77 32 97 1 11 12 54 23 95 11 41 22 87 25
103 3 15 7 35 10 45 3 9 7 33 10 52 3 19 8 46 11 60 3 14 8 41 11 60 2 19 7
46 9 60 11 60 16 100 30 225 3 33 8 75 11 94 7 49 23 367 24 486 2 110 -13
422 -25 535 -3 25 -7 70 -10 100 -5 52 -7 74 -21 165 -3 22 -7 51 -9 65 -4 35
-13 79 -36 190 -11 52 -22 106 -24 120 -2 14 -8 37 -14 53 -6 15 -8 27 -5 27
2 0 0 8 -5 18 -5 9 -11 31 -14 47 -5 30 -45 161 -76 245 -9 25 -16 47 -17 50
-2 12 -17 47 -29 70 -7 14 -13 30 -14 35 -1 27 -173 392 -191 405 -3 3 -15 23
-26 45 -22 45 -181 285 -216 327 -13 15 -30 36 -38 46 -107 139 -271 308 -400
412 -30 25 -57 48 -60 51 -9 11 -195 147 -239 174 -140 87 -212 128 -286 165
-33 17 -67 34 -75 39 -13 8 -67 32 -80 36 -3 1 -26 11 -51 22 -122 55 -459
169 -459 156 0 -3 -7 0 -15 7 -8 7 -15 10 -15 7 0 -4 -18 0 -40 8 -21 8 -47
14 -57 14 -10 0 -36 4 -58 10 -22 6 -53 13 -70 16 -16 3 -41 7 -55 10 -14 3
-41 8 -60 10 -19 3 -45 8 -58 11 -28 6 -126 17 -164 18 -16 1 -28 3 -28 6 0 3
-12 5 -27 6 -16 0 -75 4 -133 8 -131 10 -2929 16 -2935 6z m1722 -1160 c126 1
234 1 241 1 22 0 462 0 475 0 30 1 355 -12 382 -15 70 -8 151 -18 170 -21 70
-10 102 -16 115 -18 17 -4 77 -17 100 -21 8 -2 22 -6 30 -9 8 -3 40 -11 70
-18 30 -6 59 -14 64 -17 5 -3 50 -20 100 -37 115 -41 160 -59 166 -65 3 -3 37
-20 75 -39 78 -38 271 -164 325 -211 155 -137 237 -230 335 -375 84 -126 156
-262 204 -385 18 -47 39 -98 46 -115 7 -16 16 -46 20 -65 4 -19 10 -39 13 -45
7 -10 8 -14 14 -50 2 -11 6 -24 10 -30 3 -5 9 -26 12 -45 3 -19 10 -51 16 -70
6 -19 13 -54 15 -77 2 -24 6 -46 8 -50 8 -12 32 -176 43 -283 25 -261 25 -730
-1 -984 -16 -162 -48 -340 -86 -486 -16 -63 -31 -122 -33 -130 -3 -8 -9 -28
-16 -45 -6 -16 -12 -32 -12 -35 -4 -38 -94 -246 -159 -370 -26 -48 -126 -204
-152 -236 -103 -126 -193 -219 -287 -296 -88 -73 -108 -88 -114 -88 -8 0 -100
-63 -108 -75 -4 -5 -8 -6 -8 -1 0 5 -7 3 -15 -4 -23 -20 -120 -67 -208 -104
-119 -48 -121 -49 -132 -51 -5 -2 -39 -12 -75 -24 -76 -25 -71 -23 -218 -55
-113 -24 -155 -32 -247 -42 -27 -3 -61 -7 -75 -10 -68 -11 -359 -17 -893 -18
l-587 -1 0 80 c-1 44 -1 1194 -1 2555 l-1 2475 62 2 c34 1 65 4 67 7 3 3 10 3
14 0 5 -3 111 -4 236 -4z"/>
<path d="M9174 28231 c-4 -9 -8 -18 -9 -21 -1 -3 -5 -12 -8 -20 -4 -8 -13 -37
-22 -65 -9 -27 -20 -59 -24 -70 -18 -42 -36 -91 -38 -105 -1 -8 -6 -23 -11
-35 -6 -11 -35 -94 -66 -185 -31 -91 -62 -176 -68 -190 -6 -14 -12 -29 -13
-35 -3 -14 -66 -194 -78 -225 -6 -14 -11 -31 -13 -38 -1 -8 -6 -21 -10 -30 -4
-9 -8 -21 -10 -27 -1 -5 -12 -37 -24 -70 -12 -33 -48 -134 -80 -225 -32 -91
-70 -199 -85 -240 -14 -41 -32 -93 -40 -115 -7 -22 -32 -92 -55 -155 -23 -63
-43 -122 -45 -130 -2 -8 -11 -33 -19 -55 -8 -22 -39 -110 -69 -195 -31 -85
-81 -227 -112 -315 -31 -88 -62 -178 -70 -200 -7 -22 -24 -69 -37 -105 -14
-36 -26 -68 -27 -72 -1 -4 -4 -13 -6 -20 -47 -132 -87 -247 -92 -263 -2 -11
-7 -27 -11 -35 -3 -8 -6 -17 -7 -20 -1 -3 -5 -12 -8 -20 -3 -8 -34 -94 -67
-190 -34 -96 -70 -200 -82 -230 -11 -30 -22 -62 -24 -70 -2 -8 -17 -53 -34
-100 -17 -47 -38 -105 -46 -130 -8 -25 -19 -54 -24 -65 -4 -11 -11 -29 -14
-40 -2 -11 -11 -38 -20 -60 -8 -22 -42 -119 -75 -215 -34 -96 -65 -184 -70
-195 -9 -18 -31 -83 -37 -110 -4 -15 -74 -207 -84 -230 -4 -11 -22 -60 -39
-110 -16 -49 -48 -142 -71 -205 -22 -63 -43 -122 -45 -130 -7 -26 -35 -104
-45 -125 -5 -11 -19 -51 -31 -90 -12 -38 -26 -75 -31 -81 -4 -6 -5 -14 -1 -17
3 -4 0 -7 -7 -7 -7 0 -11 -3 -8 -6 3 -3 -17 -69 -44 -147 -28 -78 -63 -180
-79 -227 -16 -47 -34 -94 -38 -105 -5 -11 -23 -63 -41 -115 -17 -52 -35 -104
-40 -115 -5 -11 -16 -45 -26 -75 -10 -30 -21 -59 -25 -65 -4 -5 -10 -25 -14
-44 -4 -19 -14 -50 -23 -70 -8 -20 -17 -40 -18 -46 -3 -12 -111 -319 -127
-360 -6 -16 -12 -34 -13 -40 -1 -5 -13 -40 -27 -77 -14 -36 -23 -69 -20 -72 4
-3 1 -6 -6 -6 -7 0 -9 -4 -6 -10 3 -5 1 -10 -6 -10 -7 0 -10 -3 -7 -6 4 -3 -5
-38 -18 -77 -13 -39 -24 -72 -24 -74 0 -2 324 -3 719 -3 l719 0 8 28 c9 32 9
32 17 52 5 14 29 88 32 100 1 3 5 12 8 20 4 8 34 98 67 200 34 102 64 192 67
200 3 8 7 21 9 28 1 8 6 21 10 30 4 9 8 22 10 27 1 6 44 132 94 280 50 149 92
275 94 280 8 31 52 161 56 165 3 3 6 12 8 20 2 8 32 103 68 210 l65 195 1401
0 1401 0 42 -125 c23 -69 44 -132 48 -140 3 -8 29 -87 57 -175 28 -88 55 -169
60 -180 9 -20 50 -142 55 -160 1 -5 5 -17 8 -25 9 -24 248 -733 252 -750 2 -8
24 -73 48 -145 l44 -130 721 -3 721 -2 -30 87 c-17 49 -33 95 -36 103 -4 8 -7
17 -8 20 -1 3 -4 12 -7 20 -11 29 -77 215 -91 260 -9 25 -21 59 -28 75 -7 17
-13 36 -15 43 -1 8 -6 21 -10 30 -4 9 -8 24 -10 32 -2 8 -7 23 -13 35 -5 11
-19 47 -30 80 -11 33 -38 112 -61 175 -23 63 -43 120 -44 125 -2 6 -6 19 -10
30 -31 81 -35 95 -30 95 3 0 -2 10 -10 22 -9 12 -16 28 -16 35 0 6 -5 24 -12
40 -6 15 -12 34 -14 41 -1 8 -6 21 -10 30 -4 9 -8 22 -10 27 -2 6 -17 48 -34
95 -17 47 -41 117 -55 155 -13 39 -42 122 -65 185 -23 63 -44 126 -47 140 -3
14 -9 30 -13 35 -4 6 -13 28 -19 50 -7 22 -16 49 -21 60 -13 29 -71 197 -75
217 -2 9 -8 25 -13 35 -5 10 -21 54 -36 98 -15 44 -30 87 -33 95 -4 8 -7 18
-8 23 -2 4 -4 9 -5 12 -1 3 -3 9 -4 14 0 5 -4 13 -8 17 -5 4 -8 17 -8 29 0 11
-4 25 -9 31 -5 5 -16 32 -24 59 -13 43 -60 175 -113 320 -8 22 -17 47 -19 55
-5 20 -79 227 -94 265 -7 17 -15 42 -18 58 -3 15 -10 30 -14 33 -5 3 -9 16 -9
29 0 13 -4 26 -9 29 -5 3 -11 16 -14 28 -5 23 -71 215 -87 253 -4 11 -26 72
-48 135 -101 291 -124 357 -135 385 -6 17 -12 32 -12 35 -1 5 -31 90 -45 125
-4 11 -23 63 -41 115 -18 52 -37 106 -42 120 -6 14 -11 27 -12 30 -13 46 -30
95 -65 190 -23 63 -52 147 -65 185 -13 39 -37 107 -54 153 -17 45 -28 82 -25
82 3 0 -2 12 -10 28 -14 26 -26 55 -32 77 -1 6 -32 93 -67 195 -36 102 -82
232 -102 290 -20 58 -40 114 -45 125 -4 11 -25 67 -45 125 -20 58 -43 124 -51
148 -9 23 -17 48 -18 55 -2 6 -9 26 -15 42 -12 29 -140 389 -145 410 -2 6 -6
17 -9 25 -4 8 -20 56 -37 105 -17 50 -35 99 -40 110 -4 11 -20 54 -34 95 -13
41 -36 105 -50 143 -14 37 -23 67 -20 67 4 0 1 6 -5 13 -9 11 -158 14 -840 14
-748 0 -831 -2 -837 -16z m937 -1721 c38 -113 69 -206 69 -207 1 -5 10 -34 17
-50 3 -10 7 -22 8 -28 2 -5 31 -91 65 -190 34 -99 63 -184 64 -190 3 -11 3
-11 35 -105 13 -36 24 -72 26 -80 2 -8 4 -16 5 -17 2 -2 3 -7 4 -12 0 -5 4
-13 9 -17 4 -4 7 -13 7 -20 0 -7 5 -25 12 -41 6 -15 12 -33 14 -40 2 -10 218
-659 231 -693 15 -42 173 -508 178 -525 3 -11 39 -119 80 -240 42 -121 77
-227 79 -235 2 -8 11 -34 19 -58 l15 -43 -37 2 c-20 2 -42 0 -48 -4 -6 -4 -14
-3 -18 3 -4 6 -13 7 -23 2 -9 -5 -28 -6 -42 -2 -14 4 -33 3 -42 -2 -12 -6 -18
-5 -18 2 0 7 -6 8 -17 2 -10 -5 -27 -6 -38 -2 -11 4 -29 4 -41 0 -11 -5 -27
-5 -34 0 -7 4 -24 5 -39 1 -14 -4 -44 -4 -66 -1 -22 3 -55 2 -72 -1 -18 -4
-33 -3 -33 1 0 5 -12 5 -28 1 -15 -5 -37 -4 -50 0 -12 5 -22 4 -22 0 0 -5 -15
-6 -32 -2 -18 4 -44 5 -58 1 -14 -4 -34 -4 -45 0 -11 4 -34 4 -52 -1 -18 -4
-33 -3 -33 1 0 5 -12 5 -28 1 -15 -5 -37 -4 -50 0 -12 5 -22 4 -22 0 0 -5 -16
-5 -34 -1 -19 4 -37 5 -40 3 -4 -4 -40 -5 -126 -2 -8 0 -28 0 -45 -1 -16 0
-51 1 -76 1 -25 1 -51 -1 -57 -5 -6 -3 -13 -2 -17 4 -4 6 -13 7 -23 2 -9 -5
-28 -6 -42 -2 -14 4 -33 3 -42 -2 -12 -6 -18 -5 -18 2 0 7 -6 8 -17 2 -10 -5
-27 -6 -38 -2 -11 4 -29 4 -41 0 -11 -5 -27 -5 -34 0 -7 4 -24 5 -39 1 -14 -4
-44 -4 -66 -1 -22 3 -55 2 -72 -1 -18 -4 -33 -3 -33 1 0 5 -12 5 -28 1 -15 -5
-37 -4 -50 0 -12 5 -22 5 -22 1 0 -4 -19 -6 -42 -4 -24 2 -51 3 -60 3 -23 0
-23 2 8 90 14 41 27 79 29 84 1 6 5 17 8 25 6 15 90 270 93 280 0 3 4 12 7 20
17 40 41 114 51 155 2 8 20 61 44 125 3 8 6 17 7 20 0 3 6 21 13 41 7 20 15
45 17 55 2 10 16 51 30 89 14 39 28 77 30 85 2 8 24 76 50 150 25 74 48 140
49 145 2 6 6 17 9 25 3 8 13 38 21 65 12 39 171 517 191 573 2 7 5 16 6 20 1
4 13 39 26 77 14 39 25 75 27 80 1 6 4 15 7 20 3 6 57 165 120 355 63 190 119
348 124 352 6 4 7 8 3 8 -4 0 -2 14 4 31 9 26 15 30 40 27 29 -3 31 -6 99
-208z"/>
<path d="M13223 27683 c0 -310 3 -563 6 -564 3 -1 521 -2 1151 -3 l1145 -1 0
-3157 -1 -3158 668 0 c629 0 668 1 669 18 0 9 1 1430 2 3157 l2 3140 1145 1
c630 1 1147 2 1150 3 4 1 5 1101 1 1122 0 3 -1337 6 -2970 6 l-2968 0 0 -564z"/>
<path d="M21552 28241 c-5 -3 -18 -33 -30 -66 -54 -156 -123 -351 -129 -365
-3 -8 -7 -19 -8 -25 0 -5 -4 -17 -8 -25 -11 -24 -98 -272 -109 -310 -6 -19
-13 -39 -16 -45 -4 -5 -7 -14 -9 -20 -1 -5 -18 -55 -38 -110 -20 -55 -38 -107
-40 -115 -20 -70 -101 -287 -109 -292 -6 -4 -8 -8 -4 -8 4 0 -6 -37 -23 -82
-17 -46 -34 -96 -38 -113 -18 -63 -76 -220 -84 -226 -5 -3 -8 -10 -8 -15 2
-10 -25 -98 -39 -129 -5 -11 -32 -87 -60 -170 -29 -82 -75 -213 -102 -290 -61
-175 -83 -240 -88 -260 -1 -5 -5 -14 -10 -20 -8 -11 -43 -127 -40 -134 1 -2
-2 -7 -7 -10 -4 -3 -17 -33 -27 -66 -11 -33 -22 -64 -25 -70 -3 -5 -6 -14 -8
-20 -3 -15 -42 -127 -53 -150 -7 -16 -50 -145 -55 -165 -1 -3 -5 -12 -8 -20
-7 -16 -96 -267 -101 -285 -2 -5 -6 -18 -10 -27 -4 -9 -9 -22 -10 -30 -2 -7
-8 -24 -13 -38 -11 -27 -93 -258 -97 -275 -2 -5 -6 -17 -9 -25 -3 -8 -20 -55
-37 -105 -60 -171 -88 -251 -150 -425 -34 -96 -84 -240 -112 -320 -27 -80 -53
-154 -58 -165 -9 -22 -44 -117 -46 -125 0 -3 -3 -12 -7 -20 -3 -8 -25 -71 -48
-140 -23 -69 -47 -136 -52 -150 -6 -14 -11 -27 -12 -30 -1 -3 -4 -12 -8 -20
-11 -29 -78 -225 -82 -240 -2 -8 -27 -78 -55 -155 -28 -77 -53 -147 -55 -155
-2 -8 -9 -28 -15 -45 -12 -30 -119 -331 -124 -350 -2 -5 -6 -18 -10 -27 -4 -9
-9 -22 -10 -30 -3 -15 -13 -41 -30 -83 -6 -16 -27 -77 -46 -135 -19 -58 -37
-107 -40 -110 -3 -3 -6 -9 -7 -15 -1 -5 -23 -68 -48 -140 -25 -71 -47 -134
-48 -140 -2 -5 -5 -14 -8 -20 -5 -8 -17 -45 -24 -75 0 -3 -6 -15 -13 -27 -7
-13 -11 -23 -8 -23 2 0 -9 -34 -25 -76 -16 -41 -29 -79 -29 -85 0 -5 279 -9
718 -9 l718 0 24 73 c13 39 25 77 27 82 2 10 262 778 264 783 1 1 2 5 3 10 4
17 188 568 195 582 4 8 15 42 25 75 11 33 22 69 27 80 4 11 15 45 25 75 9 30
20 60 25 65 8 11 2793 15 2801 5 2 -3 23 -63 47 -135 23 -71 46 -139 51 -150
5 -11 50 -146 100 -300 51 -154 103 -309 116 -345 13 -36 64 -189 114 -340 50
-151 94 -282 97 -290 3 -8 7 -19 9 -25 1 -5 12 -37 23 -70 12 -33 23 -67 26
-75 2 -8 10 -33 18 -55 l14 -40 721 -3 721 -2 -50 142 c-28 79 -54 152 -57
163 -2 11 -9 26 -15 33 -5 6 -6 12 -3 12 4 0 1 10 -6 23 -6 12 -13 31 -15 42
-2 11 -7 29 -13 40 -5 11 -36 97 -69 190 -33 94 -80 229 -106 300 -25 72 -53
150 -61 175 -8 25 -18 52 -21 60 -3 8 -7 20 -8 25 -2 6 -15 42 -29 80 -15 39
-26 70 -26 70 1 0 -1 7 -4 15 -3 8 -30 85 -60 170 -30 85 -68 193 -86 240 -17
47 -33 92 -35 100 -2 8 -27 80 -55 160 -29 80 -53 150 -55 155 -2 12 -13 41
-25 70 -5 11 -14 38 -21 60 -6 22 -14 45 -18 50 -3 6 -6 15 -7 20 -3 11 -51
149 -61 175 -3 8 -7 20 -9 25 -4 16 -55 158 -64 180 -4 11 -27 76 -51 145 -23
69 -48 137 -56 152 -7 15 -13 31 -13 35 0 12 -10 45 -20 68 -5 11 -30 81 -55
155 -26 74 -55 158 -65 185 -31 85 -115 320 -116 325 0 3 -3 12 -7 20 -14 36
-59 166 -62 180 -2 8 -4 16 -5 18 -2 1 -3 5 -5 10 -1 4 -7 20 -13 35 -7 16
-12 32 -12 36 0 5 -9 30 -19 57 -19 48 -50 136 -131 369 -23 66 -45 129 -50
140 -5 11 -15 40 -23 65 -13 39 -37 106 -135 383 -11 31 -18 57 -15 57 3 0 0
6 -6 14 -6 7 -20 42 -32 77 -11 35 -23 71 -26 79 -4 8 -7 18 -8 23 -2 4 -4 9
-5 12 -1 3 -3 8 -5 13 -1 4 -4 14 -8 22 -3 8 -13 35 -21 60 -22 66 -71 205
-101 285 -14 39 -28 77 -30 85 -3 13 -28 82 -111 315 -14 39 -27 77 -29 85 -5
19 -54 158 -65 185 -13 31 -61 168 -67 190 -2 11 -8 29 -13 40 -9 20 -22 57
-130 365 -33 96 -69 195 -79 220 -9 25 -26 72 -37 106 l-19 61 -827 0 c-454 0
-831 -3 -836 -6z m866 -1548 c11 -29 92 -271 96 -288 2 -5 6 -17 9 -25 4 -8
61 -177 127 -375 67 -198 148 -441 181 -540 34 -99 62 -184 63 -190 2 -5 6
-17 9 -25 9 -22 127 -373 132 -390 2 -8 47 -143 100 -300 53 -157 98 -292 100
-300 2 -8 20 -62 40 -119 20 -57 39 -111 41 -120 7 -28 74 -225 83 -246 25
-54 24 -55 -39 -54 -32 1 -63 -2 -69 -6 -6 -3 -11 -2 -11 4 0 6 -11 7 -28 2
-15 -5 -37 -4 -50 0 -12 5 -22 4 -22 0 0 -5 -16 -5 -34 -1 -19 4 -37 5 -40 3
-4 -4 -40 -5 -126 -2 -8 0 -28 0 -45 -1 -16 0 -51 1 -76 1 -25 1 -51 -1 -57
-5 -6 -3 -13 -2 -17 4 -4 6 -13 7 -23 2 -9 -5 -28 -6 -42 -2 -14 4 -33 3 -42
-2 -12 -6 -18 -5 -18 2 0 7 -6 8 -17 2 -10 -5 -27 -6 -38 -2 -11 4 -29 4 -41
0 -11 -5 -27 -5 -34 0 -7 4 -24 5 -39 1 -14 -4 -44 -4 -66 -1 -22 3 -55 2 -72
-1 -18 -4 -33 -3 -33 1 0 5 -12 5 -28 1 -15 -5 -37 -4 -50 0 -12 5 -22 4 -22
0 0 -5 -16 -5 -34 -1 -19 4 -37 5 -40 3 -4 -4 -40 -5 -126 -2 -8 0 -28 0 -45
-1 -16 0 -51 1 -76 1 -25 1 -51 -1 -57 -5 -6 -3 -13 -2 -17 4 -4 6 -13 7 -23
2 -9 -5 -28 -6 -42 -2 -14 4 -33 3 -42 -2 -12 -6 -18 -5 -18 2 0 7 -6 8 -17 2
-10 -5 -27 -6 -38 -2 -11 4 -29 4 -41 0 -11 -5 -27 -5 -34 0 -7 4 -24 5 -39 1
-14 -4 -46 -4 -71 -1 -25 3 -57 2 -72 -2 -15 -3 -30 -2 -33 3 -5 7 132 436
162 509 3 8 7 20 8 25 6 21 197 591 205 610 5 11 14 38 20 60 6 22 14 47 17
55 4 8 7 17 8 20 4 18 28 88 35 105 4 11 34 99 65 195 31 96 61 184 65 195 5
11 28 79 51 150 23 72 46 135 51 141 5 7 8 16 7 20 -1 5 1 16 4 24 4 11 100
299 121 365 2 6 3 12 3 15 0 3 5 15 12 28 7 13 14 31 16 40 4 22 64 201 75
227 5 11 23 64 40 118 30 92 33 97 60 97 21 0 30 -7 38 -27z"/>
<path d="M26818 24546 c-2 -2036 -2 -3711 0 -3724 l4 -23 1681 4 c925 2 1698
7 1717 9 19 3 67 8 105 12 39 4 81 9 95 11 14 3 39 7 55 9 91 13 142 22 185
31 14 3 34 7 45 9 59 12 123 27 145 35 14 5 59 19 100 31 79 23 301 109 310
119 3 3 45 26 95 50 81 41 142 76 171 100 5 4 21 14 33 21 93 49 311 246 406
365 22 28 42 52 45 55 14 14 100 151 100 159 0 5 4 11 8 13 12 4 103 196 135
283 62 169 99 336 114 525 12 148 6 414 -12 515 -3 17 -10 59 -16 95 -28 159
-77 309 -148 455 -40 82 -118 210 -158 260 -101 127 -134 164 -190 219 -38 35
-81 75 -98 87 -16 13 -32 26 -35 29 -13 13 -90 70 -95 70 -4 0 -27 14 -52 31
-72 50 -269 144 -371 177 -82 28 -262 69 -302 71 -8 0 -31 2 -50 5 -19 2 -40
4 -47 5 -6 1 -11 16 -10 36 1 33 3 35 56 51 31 9 63 17 71 19 8 2 29 9 45 15
17 6 37 13 46 15 9 2 37 13 62 24 25 12 49 21 52 21 6 0 147 70 205 101 100
55 236 157 325 246 85 84 125 132 187 226 26 40 51 77 55 82 10 13 83 161 83
168 0 3 5 18 12 34 13 33 12 28 38 118 11 39 22 81 25 95 3 14 7 36 10 50 7
35 14 86 21 160 8 79 11 350 4 350 -3 0 -6 26 -8 58 -1 31 -4 64 -6 72 -1 8
-6 38 -10 65 -4 28 -15 77 -23 110 -8 33 -17 68 -18 78 -5 23 -53 162 -73 207
-36 85 -98 201 -143 269 -27 41 -49 78 -49 82 0 5 -4 9 -8 9 -4 0 -15 12 -24
28 -10 15 -38 50 -63 77 -25 28 -49 55 -53 60 -10 11 -115 108 -155 142 -14
12 -28 19 -31 16 -3 -4 -6 -2 -6 4 0 29 -319 215 -495 289 -147 63 -409 135
-575 160 -25 3 -54 8 -65 10 -24 5 -137 18 -265 30 -30 3 -760 7 -1622 8
l-1568 3 -2 -3701z m2922 2580 c94 -12 130 -18 195 -32 118 -25 164 -41 275
-93 77 -37 87 -43 160 -97 48 -37 180 -166 180 -178 0 -2 16 -28 36 -57 73
-107 127 -257 141 -394 13 -122 5 -292 -18 -380 -5 -22 -12 -50 -14 -63 -2
-13 -9 -29 -15 -37 -6 -8 -9 -19 -5 -25 3 -5 1 -10 -4 -10 -6 0 -11 -7 -11
-15 0 -18 -64 -141 -86 -166 -8 -8 -14 -18 -14 -21 0 -18 -148 -172 -205 -214
-22 -16 -42 -32 -45 -35 -3 -3 -21 -14 -40 -25 -19 -10 -37 -22 -40 -25 -7 -9
-148 -74 -180 -84 -14 -4 -30 -11 -35 -16 -6 -4 -22 -10 -35 -12 -14 -2 -32
-7 -40 -10 -17 -6 -99 -24 -147 -32 -116 -19 -186 -23 -423 -24 -146 0 -267
-2 -270 -2 -3 -1 -9 -1 -13 0 -7 1 -196 1 -257 0 -8 0 -62 0 -120 0 -58 0
-113 0 -122 0 -10 0 -33 1 -50 2 -18 0 -37 0 -43 -1 -5 -1 -81 -2 -167 -1
l-158 1 0 1028 0 1027 768 -2 c422 -1 783 -4 802 -7z m160 -3030 c45 -6 81
-13 90 -16 3 -1 8 -2 11 -2 11 2 153 -35 204 -53 108 -37 313 -143 323 -167 2
-5 8 -8 13 -8 26 0 209 -183 266 -267 60 -88 130 -229 139 -281 3 -14 9 -33
14 -43 6 -9 13 -34 16 -54 3 -21 7 -46 9 -57 24 -125 24 -286 0 -423 -43 -239
-225 -490 -445 -613 -63 -35 -200 -94 -200 -85 0 3 -6 1 -12 -5 -18 -14 -200
-55 -298 -68 -25 -3 -56 -7 -70 -9 -96 -14 -340 -18 -1005 -19 -418 -1 -766 0
-772 2 -10 3 -13 231 -13 1093 l0 1089 843 -4 c463 -2 862 -6 887 -10z"/>
<path d="M33555 28242 c-3 -3 -5 -1679 -5 -3724 l0 -3718 674 0 675 0 -2 50
c-1 28 2 50 6 50 5 0 5 5 1 11 -10 16 -11 469 -1 469 5 0 5 5 1 11 -9 16 -11
629 -1 629 5 0 5 5 1 11 -10 16 -11 229 -1 229 5 0 5 5 1 11 -9 16 -11 309 -1
309 5 0 5 5 1 11 -9 16 -11 229 -1 229 5 0 5 5 2 11 -6 8 -9 490 -6 665 l1 31
686 -1 686 -1 30 -55 c16 -30 42 -77 56 -105 14 -27 36 -67 49 -87 13 -21 20
-38 17 -38 -4 0 -1 -8 8 -17 8 -10 29 -47 48 -83 18 -36 42 -81 53 -100 11
-19 47 -87 80 -150 33 -63 67 -123 75 -132 8 -10 12 -18 7 -18 -4 0 -1 -10 7
-22 8 -13 32 -54 53 -93 21 -38 52 -95 69 -125 17 -30 31 -57 32 -60 2 -12 18
-45 23 -50 7 -6 11 -14 86 -155 56 -106 87 -164 145 -270 31 -55 65 -120 160
-300 35 -66 66 -124 70 -130 7 -9 38 -67 146 -272 24 -45 56 -106 72 -135 43
-79 106 -195 143 -265 l33 -63 748 0 c543 0 748 3 748 11 0 11 -39 88 -50 99
-3 3 -25 43 -49 90 -24 47 -48 90 -52 95 -4 6 -25 44 -47 85 -22 41 -56 104
-76 140 -21 36 -40 73 -43 83 -3 9 -10 17 -15 17 -5 0 -7 4 -4 8 3 5 -6 25
-19 45 -14 20 -25 40 -25 45 0 5 -7 15 -15 22 -8 7 -13 16 -10 20 3 4 -2 13
-10 20 -8 7 -15 16 -15 20 0 4 -20 43 -43 86 -24 44 -64 115 -88 159 -23 44
-55 103 -70 130 -16 28 -38 70 -51 95 -13 25 -26 47 -30 48 -5 2 -8 8 -8 13 0
5 -20 44 -43 87 -47 83 -89 160 -157 287 -24 44 -46 85 -50 90 -4 6 -31 55
-60 110 -29 55 -56 105 -60 110 -4 6 -25 44 -48 85 -76 141 -99 185 -122 225
-12 22 -40 73 -62 113 -51 96 -62 116 -68 122 -3 3 -17 30 -32 60 -15 30 -44
84 -64 120 -20 36 -53 98 -75 138 l-38 73 26 10 c47 18 208 93 213 100 3 3 23
16 45 28 91 49 231 145 317 218 75 63 230 227 285 300 32 43 61 80 66 81 4 2
7 8 7 14 0 6 11 26 25 44 14 18 25 37 25 42 0 6 3 12 8 14 4 2 23 35 42 73 19
39 38 72 43 73 4 2 7 8 7 13 0 9 24 67 55 134 23 48 85 247 99 315 3 14 12 57
21 95 8 39 17 86 19 105 3 19 8 62 12 95 4 33 8 75 8 93 1 17 3 32 6 32 7 0 3
446 -4 520 -3 30 -8 71 -11 90 -3 19 -8 57 -11 84 -3 28 -7 53 -9 57 -3 4 -7
24 -11 45 -5 33 -16 82 -38 174 -11 44 -71 221 -88 260 -70 159 -157 323 -214
403 -19 26 -34 52 -34 57 0 6 -4 10 -9 10 -4 0 -20 17 -34 38 -47 68 -186 215
-269 283 -29 24 -62 52 -73 63 -49 45 -281 188 -395 244 -130 63 -272 121
-350 142 -25 7 -52 15 -60 18 -17 6 -12 4 -100 27 -36 9 -74 18 -85 20 -11 2
-21 4 -22 5 -4 4 -14 6 -73 15 -30 4 -64 10 -75 12 -11 2 -33 5 -50 8 -16 2
-46 6 -65 9 -34 6 -95 12 -215 23 -79 7 -3103 12 -3110 5z m1472 -1126 c13 -3
25 -1 28 4 3 5 15 6 27 1 12 -4 37 -5 55 -1 18 5 33 5 33 1 0 -3 16 -6 35 -6
19 0 35 2 35 5 0 3 21 4 47 3 27 -1 48 -2 48 -3 0 -1 8 -3 18 -5 9 -2 17 1 17
6 0 4 10 5 22 0 12 -4 39 -5 60 -1 21 4 38 5 38 1 0 -3 16 -6 35 -6 19 0 35 2
35 5 0 3 21 4 47 3 27 -1 48 -2 48 -3 0 -6 58 -4 61 2 3 5 13 4 22 -1 10 -6
23 -6 34 0 10 5 18 6 18 1 0 -5 20 -6 45 -2 25 4 48 3 51 -1 2 -5 16 -4 29 1
13 5 27 6 29 1 3 -4 26 -5 51 -1 25 4 48 3 51 -1 2 -5 16 -4 29 1 13 5 27 5
29 1 3 -5 24 -5 46 -1 21 4 42 5 44 2 3 -3 49 -6 103 -8 54 -2 114 -5 133 -8
198 -28 206 -29 315 -58 87 -23 254 -90 297 -120 14 -10 29 -18 33 -18 9 0 92
-58 130 -90 31 -26 122 -119 140 -142 46 -59 65 -88 65 -96 0 -6 4 -12 8 -14
22 -9 123 -257 135 -333 3 -16 7 -37 10 -45 3 -8 9 -40 12 -70 4 -30 8 -66 10
-80 11 -65 5 -339 -9 -422 -3 -21 -9 -55 -12 -75 -3 -21 -10 -45 -14 -53 -4
-8 -8 -19 -9 -25 -4 -36 -15 -76 -22 -81 -5 -3 -9 -12 -9 -20 0 -50 -117 -251
-192 -329 -21 -22 -38 -43 -38 -47 0 -5 -7 -8 -15 -8 -8 0 -15 -4 -15 -9 0 -9
-106 -90 -155 -118 -98 -57 -292 -133 -372 -146 -15 -3 -39 -8 -53 -11 -39 -9
-82 -17 -120 -21 -19 -2 -53 -7 -75 -9 -22 -3 -76 -8 -120 -12 -104 -8 -1443
-9 -1451 -1 -10 10 -10 87 -1 87 5 0 5 5 1 11 -10 16 -11 469 -1 469 5 0 5 5
1 11 -9 16 -11 629 -1 629 5 0 5 5 1 11 -10 16 -11 229 -1 229 5 0 5 5 1 11
-9 16 -11 309 -1 309 5 0 5 5 1 11 -9 16 -11 229 -1 229 5 0 5 5 2 10 -5 8 -8
281 -4 432 0 23 58 29 126 14z"/>
<path d="M40210 24523 l0 -3723 677 0 c372 0 673 3 670 6 -3 4 -2 15 3 25 6
10 7 20 3 22 -10 6 -9 130 1 145 3 6 3 13 -2 16 -8 5 -7 98 2 121 3 8 2 15 -2
15 -9 0 -8 42 1 57 4 5 4 13 0 17 -8 8 -7 141 1 155 4 6 3 11 -1 11 -10 0 -10
41 0 57 4 5 4 13 0 17 -6 5 -8 118 -3 141 1 6 1 15 0 20 -5 25 -2 144 4 154 4
6 3 11 -1 11 -10 0 -10 41 0 57 4 5 4 13 0 17 -8 8 -7 141 1 155 4 6 3 11 -1
11 -10 0 -10 41 0 57 4 5 4 13 0 16 -8 9 -8 148 0 169 3 10 3 19 -1 22 -9 5
-7 99 2 121 3 8 2 15 -2 15 -9 0 -8 42 1 57 4 5 4 13 0 17 -8 8 -7 141 1 155
4 6 3 11 -1 11 -10 0 -10 41 0 57 4 5 4 13 0 17 -6 5 -8 118 -3 141 1 6 1 15
0 20 -5 25 -2 144 4 154 4 6 3 11 -1 11 -10 0 -10 41 0 57 4 5 4 13 0 17 -8 8
-7 141 1 155 4 6 3 11 -1 11 -10 0 -10 41 0 57 4 5 4 13 0 16 -8 9 -8 148 0
169 3 10 3 19 -1 22 -9 5 -7 99 2 121 3 8 2 15 -2 15 -9 0 -8 42 1 57 4 5 4
13 0 17 -8 8 -7 141 1 155 4 6 3 11 -1 11 -10 0 -10 41 0 57 4 5 4 13 0 17 -6
5 -8 118 -3 141 1 6 1 15 0 20 -5 25 -2 144 4 154 4 6 3 11 -1 11 -10 0 -10
41 0 57 4 5 4 13 0 17 -8 8 -7 141 1 155 4 6 3 11 -1 11 -10 0 -10 41 0 57 4
5 4 13 0 16 -8 9 -8 148 0 169 3 10 3 19 -1 22 -9 5 -7 99 2 121 3 8 2 15 -2
15 -9 0 -8 42 1 57 4 5 4 13 0 17 -8 8 -7 141 1 155 4 6 3 11 -1 11 -10 0 -10
41 0 57 4 5 4 13 0 17 -6 5 -8 118 -3 141 1 6 1 15 0 20 -5 25 -2 144 4 154 4
6 3 11 -1 11 -10 0 -10 41 0 57 4 5 4 13 0 17 -8 8 -7 141 1 155 4 6 3 11 -1
11 -10 0 -10 41 0 57 4 5 4 13 0 16 -8 9 -8 148 0 169 3 10 3 19 -1 22 -9 5
-7 99 2 121 3 8 2 15 -2 15 -9 0 -8 42 1 57 4 5 4 13 0 17 -8 8 -7 141 1 155
4 6 3 11 -1 11 -10 0 -10 41 0 57 4 5 4 13 0 17 -6 5 -8 118 -3 141 1 6 1 15
0 20 -5 25 -2 144 4 154 4 6 3 11 -1 11 -10 0 -10 41 0 57 4 5 4 13 0 17 -8 8
-7 141 1 155 4 6 3 11 -1 11 -10 0 -10 41 0 57 4 5 4 13 0 16 -8 9 -8 148 0
169 3 10 3 19 -1 22 -9 5 -7 99 2 121 3 8 2 15 -2 15 -9 0 -8 42 1 57 4 5 4
13 0 17 -8 8 -7 141 1 155 4 6 3 11 -1 11 -10 0 -10 41 0 57 4 5 4 13 0 17 -6
5 -8 118 -3 141 1 6 1 15 0 20 -5 25 -2 144 4 154 4 6 3 11 -1 11 -5 0 -8 13
-7 28 l2 29 -674 0 -674 0 0 -3724z"/>
<path d="M42615 28239 c-3 -4 49 -93 115 -199 66 -105 120 -196 120 -201 0 -5
4 -9 9 -9 5 0 14 -13 21 -30 7 -16 16 -30 21 -30 5 0 9 -4 9 -10 0 -5 36 -66
80 -136 44 -69 80 -127 80 -129 0 -2 18 -31 40 -64 22 -33 40 -64 40 -70 0 -5
3 -11 8 -13 9 -4 62 -85 62 -96 0 -4 8 -17 18 -28 10 -10 21 -26 25 -34 11
-21 9 -18 216 -350 211 -340 192 -309 293 -468 43 -68 78 -128 78 -133 0 -5 4
-9 9 -9 5 0 11 -8 15 -17 3 -10 14 -30 23 -45 76 -117 133 -211 133 -219 0 -5
5 -9 10 -9 6 0 10 -7 10 -15 0 -8 5 -15 10 -15 6 0 10 -4 10 -10 0 -5 26 -49
57 -97 32 -48 64 -99 72 -113 29 -52 38 -67 84 -138 26 -40 47 -77 47 -82 0
-6 5 -10 10 -10 6 0 10 -7 10 -15 0 -8 4 -15 8 -15 4 0 18 -19 30 -42 12 -24
55 -95 97 -158 41 -63 79 -124 84 -135 5 -11 42 -69 81 -130 39 -60 73 -118
76 -127 4 -10 10 -18 15 -18 5 0 9 -7 9 -15 0 -8 5 -15 10 -15 6 0 10 -4 10
-10 0 -5 34 -64 76 -130 73 -116 75 -122 62 -150 -7 -17 -16 -30 -20 -30 -5 0
-8 -6 -8 -14 0 -8 -7 -21 -14 -29 -8 -8 -24 -30 -34 -48 -43 -76 -146 -234
-154 -237 -4 -2 -8 -8 -8 -14 0 -9 -45 -82 -91 -150 -11 -15 -19 -30 -19 -33
0 -3 -5 -11 -10 -18 -12 -14 -31 -44 -115 -177 -32 -52 -63 -96 -67 -98 -4 -2
-8 -9 -8 -15 0 -11 -116 -197 -140 -224 -5 -7 -10 -15 -10 -18 0 -8 -93 -149
-103 -156 -5 -3 -8 -10 -6 -14 1 -4 -3 -14 -9 -24 -13 -17 -41 -61 -117 -181
-26 -41 -57 -91 -70 -110 -27 -42 -114 -180 -135 -215 -66 -107 -95 -150 -102
-153 -4 -2 -8 -7 -8 -12 0 -11 -63 -114 -72 -118 -5 -2 -8 -10 -8 -18 0 -8 -4
-14 -8 -14 -5 0 -14 -12 -21 -27 -7 -14 -27 -49 -45 -77 -125 -191 -346 -546
-346 -555 0 -6 -4 -11 -8 -11 -5 0 -21 -21 -36 -47 -15 -27 -44 -74 -64 -105
-83 -129 -217 -343 -221 -352 -2 -6 -8 -15 -13 -21 -19 -22 -98 -148 -98 -156
0 -5 -4 -9 -10 -9 -5 0 -10 -4 -10 -10 0 -10 -53 -97 -102 -167 l-29 -43 778
0 c730 0 779 1 791 18 7 9 62 98 122 197 60 99 113 185 117 190 4 6 55 88 113
183 58 95 115 190 128 210 12 20 28 47 34 60 6 12 15 22 20 22 4 0 8 5 8 11 0
6 28 56 63 112 34 56 67 109 72 119 6 10 49 81 98 159 48 78 87 145 87 150 0
5 5 9 10 9 6 0 10 5 10 10 0 6 25 49 55 95 30 47 55 88 55 90 0 2 27 47 60
100 33 53 60 98 60 101 0 3 5 10 11 17 15 18 204 324 234 382 15 28 36 59 46
71 10 11 19 23 19 27 0 3 25 46 55 94 30 48 80 132 112 185 53 89 61 98 88 98
27 0 36 -9 95 -107 36 -58 67 -111 69 -117 2 -6 7 -13 11 -16 5 -4 78 -122
125 -202 6 -10 37 -61 70 -115 33 -54 62 -102 64 -108 2 -5 7 -12 10 -15 11
-9 71 -111 71 -121 0 -5 4 -9 9 -9 5 0 11 -8 15 -17 3 -10 14 -30 23 -45 15
-23 96 -155 168 -274 11 -18 47 -77 80 -130 33 -54 71 -116 84 -138 13 -23 36
-60 52 -83 16 -23 29 -44 29 -46 0 -2 40 -69 89 -148 49 -79 118 -191 152
-249 58 -95 208 -338 247 -400 9 -14 17 -27 17 -30 0 -3 16 -30 36 -60 20 -30
67 -106 104 -167 l68 -113 786 1 c432 0 780 3 774 6 -7 2 -13 9 -13 15 0 5
-13 29 -30 53 -16 24 -30 48 -30 53 0 6 -3 12 -7 14 -10 4 -63 85 -63 94 0 4
-11 22 -25 40 -14 18 -25 37 -25 43 0 6 -4 11 -10 11 -5 0 -10 4 -10 9 0 7
-161 271 -187 307 -15 20 -33 49 -40 64 -4 8 -22 36 -40 62 -18 26 -33 50 -33
53 0 3 -20 36 -44 73 -107 165 -136 212 -136 217 0 3 -5 11 -10 18 -6 7 -33
48 -60 92 -27 44 -54 85 -60 92 -5 7 -10 14 -10 17 0 2 -37 62 -81 133 -45 70
-89 140 -98 155 -9 14 -36 59 -61 98 -25 39 -49 79 -55 88 -5 9 -73 117 -150
240 -77 122 -147 235 -156 250 -18 29 -346 555 -383 612 -52 81 -112 175 -121
192 -33 59 -120 194 -127 196 -4 2 -8 8 -8 13 0 5 -15 32 -34 61 -67 106 -83
133 -84 141 -1 4 -6 13 -12 20 -21 23 -120 182 -120 192 0 9 48 86 70 112 5 7
10 17 10 23 0 6 9 20 20 32 11 12 20 28 20 35 0 7 5 13 10 13 6 0 10 6 10 14
0 8 6 21 13 28 7 7 32 47 56 88 25 41 47 77 50 80 3 3 17 25 30 50 14 25 27
47 31 50 3 3 28 41 54 85 47 79 113 186 276 449 47 75 95 154 108 174 13 20
25 45 29 55 3 9 8 17 12 17 4 0 15 15 24 33 10 17 26 46 37 62 11 17 23 38 26
48 4 9 10 17 15 17 5 0 9 4 9 9 0 10 110 193 121 201 3 3 9 15 13 28 4 12 11
22 16 22 4 0 10 8 14 18 3 9 15 31 26 47 11 17 29 46 40 65 28 49 44 74 50 80
10 10 41 65 47 83 3 9 9 17 14 17 5 0 9 4 9 10 0 9 39 72 60 97 5 7 10 16 10
21 0 5 13 26 30 48 16 21 30 42 30 46 0 4 36 64 80 134 44 69 80 130 80 135 0
5 5 9 10 9 6 0 10 4 10 10 0 9 189 321 201 330 3 3 8 10 10 16 2 6 66 112 142
235 76 123 144 233 150 244 7 11 24 38 38 60 57 88 119 194 119 204 0 6 4 11
9 11 9 0 41 55 41 70 0 8 -1515 9 -1527 1 -5 -3 -29 -40 -53 -81 -24 -41 -47
-77 -50 -80 -3 -3 -14 -23 -25 -45 -11 -22 -24 -42 -28 -44 -5 -2 -12 -13 -17
-25 -6 -11 -21 -39 -34 -61 -29 -46 -90 -149 -125 -209 -13 -22 -28 -42 -32
-44 -5 -2 -9 -8 -9 -12 0 -5 -25 -50 -55 -100 -30 -50 -55 -95 -55 -100 0 -6
-4 -10 -8 -10 -5 0 -19 -19 -31 -42 -12 -24 -35 -63 -51 -88 -16 -25 -34 -54
-40 -65 -6 -11 -16 -29 -23 -40 -7 -11 -32 -54 -57 -95 -24 -41 -47 -77 -50
-80 -9 -9 -41 -65 -47 -82 -3 -10 -9 -18 -14 -18 -5 0 -9 -5 -9 -10 0 -6 -18
-39 -40 -74 -22 -35 -40 -68 -40 -75 0 -6 -3 -11 -8 -11 -4 0 -16 -17 -27 -37
-11 -21 -36 -63 -56 -93 -19 -30 -46 -75 -60 -100 -13 -25 -30 -51 -36 -58 -7
-7 -13 -19 -13 -27 0 -7 -3 -15 -8 -17 -6 -3 -42 -59 -118 -187 -12 -20 -79
-130 -149 -246 -70 -115 -135 -223 -145 -240 -9 -16 -28 -48 -41 -70 -13 -22
-28 -43 -34 -47 -5 -4 -6 -8 -1 -8 5 0 1 -10 -10 -22 -11 -13 -26 -35 -34 -50
-15 -31 -59 -39 -79 -14 -19 22 -111 178 -111 188 0 4 -4 8 -10 8 -5 0 -10 5
-10 12 0 6 -22 47 -50 90 -27 43 -50 83 -50 88 0 6 -4 10 -10 10 -5 0 -10 4
-10 9 0 5 -103 181 -230 391 -126 210 -230 386 -230 391 0 5 -4 9 -8 9 -4 0
-19 21 -33 47 -42 80 -44 83 -51 83 -5 0 -8 4 -8 9 0 5 -20 42 -45 83 -24 40
-54 91 -66 113 -12 22 -25 42 -28 45 -4 3 -12 16 -19 30 -6 14 -16 32 -22 40
-5 8 -37 60 -70 115 -34 55 -65 107 -71 115 -5 8 -12 22 -16 30 -3 8 -18 33
-33 55 -15 22 -30 47 -33 55 -4 8 -15 27 -25 42 -9 16 -53 88 -97 160 -43 73
-87 144 -96 158 -9 14 -58 95 -109 181 l-93 156 -764 0 c-420 0 -766 -3 -768
-8z"/>
</g>
</svg>
